<?xml version="1.0" encoding="UTF-8" standalone="no"?>
<!DOCTYPE svg PUBLIC "-//W3C//DTD SVG 1.1//EN" "http://www.w3.org/Graphics/SVG/1.1/DTD/svg11.dtd">
<svg width="100%" height="100%" viewBox="0 0 480 480" version="1.1" xmlns="http://www.w3.org/2000/svg" xmlns:xlink="http://www.w3.org/1999/xlink" xml:space="preserve" xmlns:serif="http://www.serif.com/" style="fill-rule:evenodd;clip-rule:evenodd;stroke-linejoin:round;stroke-miterlimit:2;">
    <circle cx="240" cy="240" r="240" style="fill:white;"/>
    <g transform="matrix(1,0,0,1,-1374.74,-1487.55)">
        <g id="Play-Icon" serif:id="Play Icon" transform="matrix(1.62477e-15,-5.30689,5.30689,1.62477e-15,-16365,3254.95)">
            <path d="M294,3377.36C294,3376.86 294.249,3376.43 294.685,3376.18C295.122,3375.93 295.617,3375.93 296.051,3376.19L314.322,3386.83C314.752,3387.08 314.996,3387.5 314.996,3388C314.996,3388.49 314.752,3388.92 314.322,3389.17L296.051,3399.81C295.617,3400.06 295.122,3400.07 294.685,3399.82C294.249,3399.57 294,3399.14 294,3398.64L294,3377.36Z" style="fill:rgb(152,132,194);"/>
        </g>
        <g id="Play-Icon1" serif:id="Play Icon" transform="matrix(1.62477e-15,-5.30689,5.30689,1.62477e-15,-16365,3410.12)">
            <path d="M294,3377.36C294,3376.86 294.249,3376.43 294.685,3376.18C295.122,3375.93 295.617,3375.93 296.051,3376.19L314.322,3386.83C314.752,3387.08 314.996,3387.5 314.996,3388C314.996,3388.49 314.752,3388.92 314.322,3389.17L296.051,3399.81C295.617,3400.06 295.122,3400.07 294.685,3399.82C294.249,3399.57 294,3399.14 294,3398.64L294,3377.36Z" style="fill:rgb(152,132,194);"/>
        </g>
        <g transform="matrix(1,2.44929e-16,-2.44929e-16,1,337.323,20.086)">
            <g id="Play-Icon2" serif:id="Play Icon" transform="matrix(-9.7486e-16,5.30689,-5.30689,-9.7486e-16,19170.3,137.999)">
                <path d="M294,3377.36C294,3376.86 294.249,3376.43 294.685,3376.18C295.122,3375.93 295.617,3375.93 296.051,3376.19L314.322,3386.83C314.752,3387.08 314.996,3387.5 314.996,3388C314.996,3388.49 314.752,3388.92 314.322,3389.17L296.051,3399.81C295.617,3400.06 295.122,3400.07 294.685,3399.82C294.249,3399.57 294,3399.14 294,3398.64L294,3377.36Z"/>
                <path d="M294,3377.36C294,3376.86 294.249,3376.43 294.685,3376.18C295.122,3375.93 295.617,3375.93 296.051,3376.19L314.322,3386.83C314.752,3387.08 314.996,3387.5 314.996,3388C314.996,3388.49 314.752,3388.92 314.322,3389.17L296.051,3399.81C295.617,3400.06 295.122,3400.07 294.685,3399.82C294.249,3399.57 294,3399.14 294,3398.64L294,3377.36Z" style="fill:rgb(152,132,194);"/>
            </g>
            <g id="Play-Icon3" serif:id="Play Icon" transform="matrix(-9.7486e-16,5.30689,-5.30689,-9.7486e-16,19344,137.999)">
                <path d="M294,3377.36C294,3376.86 294.249,3376.43 294.685,3376.18C295.122,3375.93 295.617,3375.93 296.051,3376.19L314.322,3386.83C314.752,3387.08 314.996,3387.5 314.996,3388C314.996,3388.49 314.752,3388.92 314.322,3389.17L296.051,3399.81C295.617,3400.06 295.122,3400.07 294.685,3399.82C294.249,3399.57 294,3399.14 294,3398.64L294,3377.36Z"/>
            </g>
            <g id="Play-Icon4" serif:id="Play Icon" transform="matrix(-9.7486e-16,5.30689,-5.30689,-9.7486e-16,19344,137.999)">
                <path d="M294,3377.36C294,3376.86 294.249,3376.43 294.685,3376.18C295.122,3375.93 295.617,3375.93 296.051,3376.19L314.322,3386.83C314.752,3387.08 314.996,3387.5 314.996,3388C314.996,3388.49 314.752,3388.92 314.322,3389.17L296.051,3399.81C295.617,3400.06 295.122,3400.07 294.685,3399.82C294.249,3399.57 294,3399.14 294,3398.64L294,3377.36Z" style="fill:rgb(152,132,194);"/>
            </g>
        </g>
    </g>
</svg>
