<?xml version="1.0" encoding="UTF-8" standalone="no"?>
<!DOCTYPE svg PUBLIC "-//W3C//DTD SVG 1.1//EN" "http://www.w3.org/Graphics/SVG/1.1/DTD/svg11.dtd">
<svg width="100%" height="100%" viewBox="0 0 120 120" version="1.1" xmlns="http://www.w3.org/2000/svg" xmlns:xlink="http://www.w3.org/1999/xlink" xml:space="preserve" xmlns:serif="http://www.serif.com/" style="fill-rule:evenodd;clip-rule:evenodd;stroke-linejoin:round;stroke-miterlimit:2;">
    <g>
        <path d="M120,60C120,26.885 93.115,0 60,0C26.885,0 0,26.885 0,60C0,93.115 26.885,120 60,120C93.115,120 120,93.115 120,60Z" style="fill:rgb(246,246,246);"/>
        <g transform="matrix(1,0,0,1,-0.0133649,-14.8687)">
            <g transform="matrix(44.6828,0,0,44.6828,12.4485,83.3808)">
                <path d="M0.334,-0.317C0.375,-0.378 0.416,-0.435 0.457,-0.487C0.497,-0.538 0.535,-0.583 0.572,-0.62C0.609,-0.657 0.642,-0.686 0.673,-0.707C0.704,-0.728 0.73,-0.738 0.753,-0.738C0.762,-0.738 0.771,-0.735 0.782,-0.728C0.792,-0.721 0.802,-0.713 0.811,-0.702C0.82,-0.691 0.827,-0.68 0.833,-0.668C0.839,-0.655 0.842,-0.643 0.842,-0.632C0.801,-0.619 0.76,-0.601 0.721,-0.58C0.681,-0.558 0.643,-0.533 0.607,-0.504C0.57,-0.476 0.536,-0.445 0.502,-0.41C0.469,-0.375 0.44,-0.338 0.413,-0.299C0.424,-0.272 0.437,-0.243 0.453,-0.212C0.468,-0.181 0.485,-0.151 0.504,-0.122C0.523,-0.093 0.543,-0.066 0.564,-0.041C0.585,-0.016 0.607,0.003 0.629,0.018C0.626,0.025 0.62,0.032 0.612,0.039C0.604,0.046 0.595,0.052 0.586,0.057C0.577,0.063 0.567,0.068 0.557,0.071C0.546,0.074 0.537,0.076 0.528,0.076C0.511,0.076 0.495,0.068 0.48,0.051C0.465,0.035 0.451,0.01 0.436,-0.023C0.421,-0.056 0.405,-0.097 0.389,-0.146C0.372,-0.195 0.354,-0.252 0.334,-0.317ZM0.183,0.081C0.158,0.075 0.137,0.064 0.12,0.049C0.103,0.034 0.088,0.016 0.074,-0.007C0.08,-0.02 0.087,-0.036 0.096,-0.057C0.104,-0.078 0.114,-0.103 0.126,-0.134C0.138,-0.164 0.152,-0.2 0.169,-0.243C0.186,-0.285 0.205,-0.334 0.227,-0.391C0.241,-0.427 0.253,-0.457 0.262,-0.482C0.271,-0.507 0.278,-0.531 0.284,-0.555C0.291,-0.578 0.297,-0.604 0.303,-0.633C0.309,-0.662 0.316,-0.698 0.324,-0.742C0.352,-0.737 0.378,-0.724 0.401,-0.705C0.424,-0.686 0.443,-0.662 0.46,-0.635C0.453,-0.626 0.444,-0.612 0.435,-0.593C0.425,-0.574 0.414,-0.551 0.402,-0.524C0.39,-0.497 0.377,-0.468 0.362,-0.435C0.347,-0.402 0.332,-0.368 0.316,-0.331C0.28,-0.251 0.252,-0.178 0.231,-0.112C0.21,-0.045 0.194,0.019 0.183,0.081Z" style="fill-rule:nonzero;"/>
            </g>
            <g transform="matrix(44.6828,0,0,44.6828,39.3476,83.3808)">
                <path d="M0.473,-0.155C0.458,-0.106 0.442,-0.062 0.427,-0.022C0.412,0.018 0.395,0.055 0.378,0.088C0.361,0.122 0.342,0.153 0.322,0.181C0.302,0.21 0.28,0.237 0.256,0.262C0.225,0.294 0.194,0.318 0.161,0.335C0.128,0.352 0.096,0.361 0.063,0.361C0.046,0.361 0.03,0.359 0.014,0.355C-0.003,0.352 -0.018,0.347 -0.032,0.34C-0.047,0.334 -0.059,0.327 -0.07,0.318C-0.081,0.31 -0.089,0.301 -0.094,0.292C-0.094,0.284 -0.089,0.277 -0.08,0.271C-0.072,0.278 -0.065,0.284 -0.06,0.288C-0.055,0.292 -0.049,0.295 -0.044,0.298C-0.039,0.301 -0.034,0.302 -0.028,0.303C-0.023,0.304 -0.016,0.304 -0.009,0.304C0.029,0.304 0.066,0.293 0.102,0.27C0.139,0.248 0.173,0.216 0.205,0.175C0.238,0.134 0.267,0.085 0.294,0.026C0.321,-0.032 0.343,-0.097 0.362,-0.169C0.353,-0.156 0.343,-0.139 0.33,-0.12C0.317,-0.101 0.303,-0.082 0.288,-0.063C0.273,-0.044 0.257,-0.027 0.241,-0.011C0.224,0.004 0.208,0.014 0.193,0.02C0.182,0.019 0.171,0.018 0.16,0.014C0.148,0.01 0.137,0.005 0.127,-0.002C0.116,-0.008 0.107,-0.016 0.099,-0.026C0.091,-0.035 0.086,-0.046 0.083,-0.058C0.083,-0.077 0.084,-0.093 0.085,-0.105C0.086,-0.116 0.089,-0.129 0.092,-0.143C0.098,-0.168 0.107,-0.197 0.118,-0.229C0.13,-0.261 0.144,-0.293 0.16,-0.324C0.175,-0.355 0.193,-0.384 0.212,-0.41C0.231,-0.438 0.25,-0.459 0.271,-0.474C0.276,-0.474 0.283,-0.473 0.291,-0.472C0.299,-0.471 0.307,-0.47 0.316,-0.467C0.325,-0.464 0.333,-0.461 0.341,-0.458C0.349,-0.454 0.356,-0.449 0.362,-0.443C0.355,-0.436 0.339,-0.414 0.314,-0.376C0.289,-0.338 0.262,-0.283 0.232,-0.212C0.229,-0.205 0.225,-0.194 0.22,-0.18C0.215,-0.166 0.211,-0.151 0.206,-0.136C0.202,-0.121 0.198,-0.106 0.195,-0.091C0.192,-0.076 0.19,-0.065 0.19,-0.056C0.19,-0.051 0.191,-0.047 0.193,-0.044C0.194,-0.041 0.196,-0.039 0.197,-0.038C0.209,-0.04 0.225,-0.05 0.245,-0.068C0.265,-0.085 0.288,-0.113 0.313,-0.15C0.329,-0.174 0.344,-0.198 0.357,-0.222C0.37,-0.245 0.384,-0.269 0.397,-0.293C0.409,-0.317 0.423,-0.342 0.437,-0.367C0.451,-0.392 0.466,-0.418 0.482,-0.445C0.491,-0.445 0.5,-0.444 0.51,-0.442C0.52,-0.44 0.53,-0.438 0.539,-0.435C0.548,-0.432 0.557,-0.428 0.564,-0.425C0.571,-0.421 0.576,-0.417 0.579,-0.413C0.558,-0.369 0.539,-0.326 0.521,-0.284C0.503,-0.242 0.487,-0.199 0.473,-0.155Z" style="fill-rule:nonzero;"/>
            </g>
            <g transform="matrix(44.6828,0,0,44.6828,61.1975,83.3808)">
                <path d="M0.152,-0.354C0.152,-0.366 0.153,-0.377 0.155,-0.388C0.156,-0.399 0.16,-0.408 0.165,-0.416C0.17,-0.423 0.178,-0.429 0.187,-0.434C0.196,-0.438 0.209,-0.44 0.224,-0.44C0.233,-0.44 0.244,-0.439 0.256,-0.437C0.267,-0.435 0.276,-0.431 0.281,-0.426C0.278,-0.415 0.276,-0.405 0.275,-0.396C0.273,-0.387 0.272,-0.378 0.271,-0.368C0.27,-0.357 0.269,-0.345 0.268,-0.331C0.267,-0.316 0.267,-0.298 0.266,-0.275C0.265,-0.23 0.263,-0.189 0.26,-0.154C0.257,-0.118 0.25,-0.082 0.239,-0.047C0.239,-0.044 0.24,-0.043 0.242,-0.043C0.252,-0.05 0.263,-0.061 0.276,-0.075C0.289,-0.089 0.302,-0.105 0.316,-0.123C0.33,-0.14 0.344,-0.159 0.358,-0.179C0.372,-0.199 0.385,-0.219 0.397,-0.238C0.413,-0.266 0.431,-0.301 0.45,-0.343C0.469,-0.385 0.485,-0.43 0.498,-0.478C0.502,-0.478 0.507,-0.477 0.514,-0.475C0.52,-0.474 0.526,-0.472 0.533,-0.469C0.539,-0.467 0.545,-0.465 0.55,-0.462C0.555,-0.459 0.558,-0.457 0.56,-0.455C0.559,-0.426 0.552,-0.397 0.54,-0.367C0.527,-0.337 0.512,-0.308 0.495,-0.28C0.478,-0.252 0.459,-0.226 0.44,-0.201C0.421,-0.176 0.403,-0.155 0.387,-0.137C0.355,-0.1 0.323,-0.066 0.291,-0.037C0.258,-0.008 0.22,0.021 0.175,0.048C0.158,0.041 0.144,0.032 0.134,0.021C0.124,0.01 0.119,-0.001 0.119,-0.013C0.119,-0.021 0.121,-0.03 0.125,-0.041C0.128,-0.051 0.132,-0.064 0.137,-0.081C0.142,-0.097 0.146,-0.117 0.15,-0.142C0.153,-0.167 0.155,-0.198 0.155,-0.236C0.155,-0.258 0.155,-0.28 0.154,-0.303C0.153,-0.325 0.152,-0.342 0.152,-0.354Z" style="fill-rule:nonzero;"/>
            </g>
            <g transform="matrix(44.6828,0,0,44.6828,81.2153,83.3808)">
                <path d="M0.442,-0.404C0.449,-0.404 0.457,-0.403 0.466,-0.401C0.474,-0.398 0.483,-0.395 0.49,-0.392C0.497,-0.388 0.503,-0.384 0.508,-0.38C0.514,-0.376 0.516,-0.372 0.516,-0.369C0.503,-0.341 0.49,-0.313 0.479,-0.284C0.468,-0.256 0.458,-0.229 0.45,-0.203C0.442,-0.177 0.436,-0.153 0.432,-0.13C0.427,-0.107 0.425,-0.088 0.425,-0.071C0.425,-0.052 0.427,-0.037 0.431,-0.025C0.435,-0.012 0.442,-0.003 0.451,0.002C0.443,0.007 0.433,0.012 0.42,0.015C0.407,0.018 0.396,0.02 0.386,0.02C0.35,0.02 0.332,-0.005 0.332,-0.054C0.332,-0.092 0.345,-0.144 0.37,-0.21C0.357,-0.179 0.341,-0.151 0.324,-0.124C0.307,-0.097 0.289,-0.073 0.271,-0.053C0.253,-0.032 0.235,-0.015 0.217,-0.002C0.198,0.011 0.181,0.018 0.166,0.021C0.141,0.021 0.121,0.01 0.106,-0.013C0.091,-0.035 0.083,-0.064 0.083,-0.099C0.083,-0.136 0.091,-0.175 0.107,-0.217C0.123,-0.258 0.143,-0.297 0.169,-0.332C0.194,-0.368 0.221,-0.398 0.25,-0.421C0.279,-0.445 0.308,-0.457 0.335,-0.457C0.342,-0.455 0.349,-0.451 0.358,-0.445C0.366,-0.439 0.374,-0.432 0.382,-0.424C0.389,-0.416 0.396,-0.408 0.401,-0.4C0.406,-0.391 0.409,-0.384 0.41,-0.378C0.383,-0.374 0.356,-0.361 0.328,-0.339C0.299,-0.317 0.274,-0.291 0.251,-0.26C0.228,-0.229 0.209,-0.196 0.194,-0.161C0.179,-0.125 0.172,-0.093 0.172,-0.062C0.172,-0.049 0.177,-0.041 0.186,-0.038C0.205,-0.042 0.228,-0.059 0.253,-0.087C0.278,-0.117 0.309,-0.161 0.345,-0.222C0.352,-0.234 0.359,-0.247 0.368,-0.262C0.376,-0.277 0.384,-0.292 0.393,-0.308C0.402,-0.324 0.41,-0.34 0.419,-0.357C0.427,-0.373 0.435,-0.389 0.442,-0.404Z" style="fill-rule:nonzero;"/>
            </g>
        </g>
    </g>
</svg>
