<svg xmlns="http://www.w3.org/2000/svg" width="20" height="13"><path d="M 0.554 8.125 C 0.351 8.125 0.177 8.029 0.076 7.86 C -0.026 7.691 -0.026 7.499 0.08 7.331 L 4.391 0.261 C 4.493 0.094 4.663 0 4.866 0 C 5.064 0 5.238 0.094 5.34 0.261 L 9.652 7.331 C 9.753 7.499 9.757 7.691 9.656 7.86 C 9.554 8.029 9.38 8.125 9.178 8.125 Z" transform="translate(0.403 0.107) rotate(-180 4.865 4.063)" fill="hsla(0, 0%, 0%, 0.5)"></path><path d="M 0.554 8.125 C 0.351 8.125 0.177 8.029 0.076 7.86 C -0.026 7.691 -0.026 7.499 0.08 7.331 L 4.391 0.261 C 4.493 0.094 4.663 0 4.866 0 C 5.064 0 5.238 0.094 5.34 0.261 L 9.652 7.331 C 9.753 7.499 9.757 7.691 9.656 7.86 C 9.554 8.029 9.38 8.125 9.178 8.125 Z" transform="translate(10.132 4.44) rotate(-180 4.865 4.063)" fill="hsla(0, 0%, 0%, 0.5)"></path></svg>
